<?xml version="1.0" encoding="UTF-8" standalone="no"?>
<!-- Created with Inkscape (http://www.inkscape.org/) -->

<svg
   xmlns:dc="http://purl.org/dc/elements/1.1/"
   xmlns:cc="http://creativecommons.org/ns#"
   xmlns:rdf="http://www.w3.org/1999/02/22-rdf-syntax-ns#"
   xmlns:svg="http://www.w3.org/2000/svg"
   xmlns="http://www.w3.org/2000/svg"
   xmlns:sodipodi="http://sodipodi.sourceforge.net/DTD/sodipodi-0.dtd"
   xmlns:inkscape="http://www.inkscape.org/namespaces/inkscape"
   width="425.08081"
   height="167.40459"
   id="svg2"
   version="1.1"
   inkscape:version="0.48.4 r9939"
   sodipodi:docname="huck.svg">
  <defs
     id="defs4" />
  <sodipodi:namedview
     id="base"
     pagecolor="#ffffff"
     bordercolor="#666666"
     borderopacity="1.0"
     inkscape:pageopacity="0.0"
     inkscape:pageshadow="2"
     inkscape:zoom="0.78"
     inkscape:cx="191.82972"
     inkscape:cy="160.19879"
     inkscape:document-units="px"
     inkscape:current-layer="text2985"
     showgrid="false"
     inkscape:window-width="1314"
     inkscape:window-height="1270"
     inkscape:window-x="656"
     inkscape:window-y="74"
     inkscape:window-maximized="0"
     fit-margin-top="0"
     fit-margin-left="0"
     fit-margin-right="0"
     fit-margin-bottom="0" />
  <metadata
     id="metadata7">
    <rdf:RDF>
      <cc:Work
         rdf:about="">
        <dc:format>image/svg+xml</dc:format>
        <dc:type
           rdf:resource="http://purl.org/dc/dcmitype/StillImage" />
        <dc:title></dc:title>
      </cc:Work>
    </rdf:RDF>
  </metadata>
  <g
     inkscape:label="Layer 1"
     inkscape:groupmode="layer"
     id="layer1"
     transform="translate(-210.7942,-547.59541)">
    <g
       style="font-size:174.57011414px;font-style:normal;font-weight:normal;line-height:125%;letter-spacing:0px;word-spacing:0px;fill:#000000;fill-opacity:1;stroke:none;font-family:Sans"
       id="text2985">
      <path
         d="m 210.7942,604.36108 17.21835,-3.75977 0,16.64014 62.56565,0 0,-34.89738 17.21834,-17.26908 0,127.26229 -17.21834,0 0,-60.60515 -62.56565,0 0,60.60515 -17.21835,0 0,-79.27825"
         id="path2990"
         inkscape:connector-curvature="0"
         sodipodi:nodetypes="ccccccccccccc"
         style="fill:#ffffff" />
      <path
         d="m 318.10224,557.47865 17.30358,-9.88324 0,94.79163 c 0,13.63833 2.47191,23.46925 7.41582,29.49281 4.94384,5.96676 12.95632,8.95013 24.03749,8.95012 11.02421,10e-6 19.00828,-2.98336 23.95224,-8.95012 4.94379,-6.02356 7.41573,-15.85448 7.41582,-29.49281 l 0,-84.00088 17.30358,13.57009 0,72.56178 c 0,16.59328 -4.12,29.12345 -12.3597,37.59053 -8.18306,8.46711 -20.28703,12.70066 -36.31194,12.70066 -16.08187,0 -28.24266,-4.23355 -36.48243,-12.70066 -8.18299,-8.46708 -12.27446,-20.99725 -12.27446,-37.59053 l 0,-64.182"
         id="path2992"
         inkscape:connector-curvature="0"
         sodipodi:nodetypes="ccscscsccscscsc"
         style="fill:#ffffff" />
      <path
         d="m 452.27068,594.44375 c -7.7284,8.86498 -9.52361,17.56976 -9.52358,34.39024 -3e-5,16.76378 3.86415,29.60649 11.59255,38.52817 7.72831,8.86491 18.86624,13.29735 33.41381,13.29733 7.38732,2e-5 14.34853,-1.3354 20.88363,-4.00624 6.59174,-2.67082 12.78579,-6.70547 18.58217,-12.10399 l 0,17.9855 c -6.02369,4.09149 -12.41663,7.1601 -19.17885,9.20585 -6.70558,2.04574 -13.80884,3.06861 -21.30982,3.06861 -19.26414,0 -34.43672,-5.88151 -45.5178,-17.64454 -11.08112,-11.81982 -16.62167,-27.93004 -16.62166,-48.33069 -1e-5,-20.45735 3.47157,-31.05032 14.55269,-42.81345"
         id="path2994"
         inkscape:connector-curvature="0"
         sodipodi:nodetypes="cscsccccscsc"
         style="fill:#ffffff" />
      <path
         d="m 532.48909,593.99065 17.21834,-4.81927 0,29.68961 43.85733,-37.72174 27.78471,-7.22892 -55.53181,50.49122 67.68002,67.93573 -22.67366,0 -61.11659,-61.28707 0,61.28707 -17.21834,0 0,-87.10165"
         id="path2996"
         inkscape:connector-curvature="0"
         sodipodi:nodetypes="cccccccccccc"
         style="fill:#ffffff" />
      <path
         style="fill:#008000;stroke:#c87137;stroke-width:9.06659984999999935;stroke-linecap:butt;stroke-linejoin:miter;stroke-miterlimit:4;stroke-opacity:1;stroke-dasharray:4.53329959000000038, 4.53329959000000038;stroke-dashoffset:0"
         d="m 214.26525,710.46645 425.77295,0"
         id="path3035"
         inkscape:connector-curvature="0" />
    </g>
  </g>
</svg>
